<svg xmlns="http://www.w3.org/2000/svg">
    <symbol id="player-ship" viewBox="0 0 324 276">
        <g id="Frame">
            <path id="Vector" d="M158.517 4.22257C158.794 4.227 159.069 4.24207 159.347 4.26762C160.902 4.40096 162.076 4.96594 163.048 6.05151C163.85 6.94706 164.281 8.30636 164.661 9.38521C166.045 13.3035 173.412 39.7821 172.868 41.9713C172.671 42.7628 172.1 43.1002 171.391 43.5596C171.462 45.9969 172.463 51.7063 172.803 54.3815L176.076 79.7702C179.68 108.254 183.499 136.716 187.527 165.155C195.913 162.811 209.632 163.103 212.792 172.035C213.383 173.711 213.51 174.859 213.588 176.61C233.39 179.859 253.23 182.917 273.108 185.784C273.065 182.365 272.524 171.164 273.45 168.774C274.05 167.231 275.624 166.466 277.166 165.756C277.308 163.011 277.172 159.892 277.168 157.109C277.168 156.575 276.325 155.105 276.333 154.589C276.387 150.488 275.992 145.816 276.582 141.787C276.755 140.607 278.379 139.633 279.379 139.123C279.526 129.468 279.405 119.583 279.369 109.914C276.621 108.397 276.768 106.435 277.22 103.746C277.427 102.516 278.219 102.073 279.39 101.464C279.369 96.7377 279.273 91.7998 279.397 87.0916C281.135 85.0505 283.868 84.737 284.676 87.6228C284.996 88.7711 284.823 91.179 284.827 92.4862L284.84 101.383C287.973 102.898 287.283 105.057 287.182 107.821C286.46 108.857 285.904 109.197 284.838 109.904C285.098 113.279 284.946 117.976 284.953 121.451C284.992 127.326 284.987 133.201 284.936 139.075C285.995 139.637 287.225 140.301 287.763 141.326C288.552 142.831 288.773 153.605 288.079 155.092C287.914 155.443 287.722 155.739 287.62 156.116C287.208 157.628 287.577 163.979 287.594 165.94C289.378 166.494 291.222 167.519 291.533 169.308C292.109 172.627 292.003 176.029 292.082 179.382L292.478 195.095L292.975 211.179C293.198 217.142 294.063 221.814 291.295 227.215C290.24 229.274 290.692 234.383 288.905 236.545C288.178 237.426 286.667 237.838 285.472 237.918C278.545 238.228 276.405 238.051 275.687 231.387C275.525 229.893 275.015 227.464 274.859 225.748C252.914 232.222 230.533 238.454 208.709 245.042C208.616 248.616 209.174 252.566 209.039 255.834C208.875 259.732 207.941 270.267 201.851 270.338C199.076 270.37 190.729 271.039 189.025 269.06C183.625 262.796 185.419 253.021 185.543 245.606C185.631 241.831 185.785 238.029 185.558 234.671C184.072 241.749 182.473 252.006 176.77 257.356C171.862 261.96 165.476 261.793 158.824 261.913C154.33 261.893 148.908 262.118 144.802 260.237C136.399 256.389 134.68 247.955 132.908 240.557C132.468 238.722 132.19 236.512 131.532 234.806L131.442 234.576C131.196 236.334 131.323 238.991 131.36 240.84C131.448 244.641 131.559 248.438 131.695 252.237C131.842 257.211 131.937 264.892 128.001 269.127C126.672 270.557 122.826 270.528 120.745 270.449C118.186 270.292 113.31 270.949 111.59 268.85C106.463 262.598 108.182 252.341 108.233 245.25L65.376 232.732C57.7793 230.484 49.97 228.281 42.4308 225.916C42.1066 228.664 41.5695 234.352 40.0059 236.632C38.6238 238.649 30.2117 238.229 28.2091 236.866C26.8467 234.213 26.5785 230.697 25.7146 227.801C25.4007 226.749 24.1304 223.385 24.0921 222.595C23.8859 218.208 24.2447 213.807 24.323 209.428C24.4227 203.857 24.6393 198.286 24.7925 192.719L25.1832 177.737C25.2401 175.048 25.1075 171.701 25.6352 169.044C25.9509 167.455 27.8358 166.551 29.2937 165.827C29.2641 162.782 29.2989 159.679 29.2916 156.622C29.2914 155.928 28.5941 155.015 28.5786 154.365C28.5695 151.649 28.4409 148.906 28.5129 146.19C28.6024 142.812 27.8027 140.789 31.7418 139.083L31.7355 109.91C29.2207 108.404 29.1402 106.219 29.685 103.662C29.9375 102.476 30.5396 102.116 31.6793 101.509C31.6927 99.1182 31.0705 87.8059 32.1921 86.502C32.6465 85.9739 33.2838 85.6096 34.0418 85.5652C34.833 85.5188 35.6731 85.7264 36.238 86.2348C36.7705 86.7143 36.9071 87.3805 37.0065 88.0197C37.2428 89.5373 37.0993 91.1762 37.0893 92.7098C37.0586 95.5925 37.0468 98.4754 37.0539 101.358C39.609 102.789 39.7824 104.507 39.3616 107.158C39.1312 108.609 38.3665 109.129 37.0414 109.893C37.2119 113.143 37.1174 116.977 37.1218 120.26L37.1099 139.127C38.658 139.829 40.0292 140.484 40.3615 142.136C40.7202 143.934 40.6252 145.777 40.616 147.599C40.6045 149.953 40.6348 152.331 40.4501 154.68C40.3799 155.572 39.7503 156.342 39.7367 157.246C39.6944 160.041 39.7207 162.839 39.7331 165.634C46.4185 168.965 43.0893 173.639 43.8079 179.43C44.0148 181.097 43.7926 184.075 43.633 185.812C63.3146 182.501 83.5469 180.275 103.116 176.759C103.564 168.371 108.576 164.484 118.05 164.04C122.647 163.823 125.741 164.071 130.129 165.383C130.165 162.236 131.376 154.911 131.833 151.543L135.136 126.678L143.037 65.3135C143.924 58.1604 144.936 50.977 145.755 43.8246L144.13 42.2396C144.865 36.5862 151.66 9.25563 154.65 5.87263C155.612 4.7851 157.021 4.37885 158.517 4.22257Z" fill="url(#paint0_linear_4_2)"/>
            <path id="Vector_2" d="M149.302 42.6912C155.424 42.6781 161.879 42.5806 167.971 42.6956C168.494 51.8174 170.364 63.6269 171.542 72.8047C174.095 93.2893 176.787 113.76 179.617 134.217L182.505 155.109C183.011 158.637 183.886 163.511 184.194 166.995C178.953 172.196 179.82 174.525 179.814 181.204L179.809 195.154L179.801 212.573C179.799 215.578 179.766 218.588 179.844 221.591C179.894 223.578 181.242 225.011 183.063 226.035C182.754 229.152 182.196 232.945 181.515 236.008C180.002 242.814 178.49 255.09 169.783 257.718C165.79 259.701 150.424 259.159 146.048 257.331C141.103 254.812 139.373 251.064 137.911 246.389C135.799 239.636 135.113 232.941 133.91 226.104C135.372 225.106 136.932 223.932 137.085 222.199C137.295 219.833 137.225 217.166 137.226 214.786L137.228 200.469L137.224 182.945C137.223 177.934 138.173 172.712 134.498 168.587C134.161 168.215 133.813 167.85 133.455 167.494C133.862 162.94 134.624 157.982 135.23 153.41L138.393 129.786L145.263 76.3261C146.276 68.6739 147.242 61.0168 148.161 53.3554C148.492 50.6009 149.32 45.227 149.302 42.6912Z" fill="url(#paint1_linear_4_2)"/>
            <path id="Vector_3" d="M170.124 162.78C170.196 162.159 170.18 161.564 170.606 161.088C171.311 161.586 171.558 166.204 171.54 167.155L171.823 167.299C172.011 169.986 171.932 173.236 171.927 175.96C171.944 180.078 171.908 184.196 171.821 188.315L171.653 188.228C171.393 188.089 171.49 188.143 171.22 187.962L171.017 188.13C171 188.873 171.008 188.963 170.492 189.548C170.362 190.556 170.211 199.049 170.349 200.188L170.317 202.34C169.807 207.569 170.23 213.17 169.644 218.447C169.514 219.611 169.439 221.013 169.441 222.174C169.372 223.555 169.27 224.933 169.132 226.307C168.285 232.954 168.064 238.997 166.819 245.809C164.4 245.873 161.888 246.164 159.375 246.207C155.796 246.269 153.207 246.053 149.721 245.661C149.632 245.063 149.595 244.56 149.358 243.992C148.46 238.678 147.897 232.622 147.481 227.247C147.059 221.802 146.593 215.818 146.521 210.37C146.523 209.41 146.569 208.44 146.403 207.497C146.29 207.775 146.385 207.672 146.144 207.824C145.743 206.778 145.765 201.893 145.748 200.582C145.791 199.821 145.73 198.572 146.125 197.994C146.319 196.477 146.334 186.337 145.996 184.909L145.799 185.102C145.277 183.037 145.422 172.805 145.42 170.305C145.379 167.806 145.227 164.967 146.059 162.585L146.38 162.446L146.679 161.864C147.379 162.09 148.467 162.423 149.244 162.452C155.11 162.673 161.499 162.731 167.35 162.375C168.07 162.331 169.242 161.926 169.902 161.692C169.99 162.076 170.061 162.392 170.124 162.78Z" fill="url(#paint2_linear_4_2)"/>
            <path id="Vector_4" d="M170.124 162.78C170.196 162.159 170.18 161.564 170.606 161.088C171.311 161.586 171.558 166.204 171.54 167.155L171.823 167.299C172.011 169.986 171.932 173.236 171.927 175.96C171.944 180.078 171.908 184.196 171.821 188.315L171.653 188.228C171.393 188.089 171.49 188.143 171.22 187.962L171.017 188.13C171 188.873 171.008 188.963 170.492 189.548L170.574 173.464C170.561 169.871 170.609 166.349 170.124 162.78Z" fill="#3D4045"/>
            <path id="Vector_5" d="M170.818 167.698C171.132 170.469 171.134 173.641 171.058 176.438C170.985 179.082 171.287 182.488 170.915 185.066L170.797 185.88L170.723 185.918C170.783 185.518 170.816 185.391 170.779 184.988C170.574 182.742 170.721 180.29 170.742 178.016C170.771 174.6 170.654 171.097 170.818 167.698Z" fill="#1F242C"/>
            <path id="Vector_6" d="M145.42 170.305C145.379 167.806 145.227 164.967 146.059 162.585L146.38 162.446C145.736 166 145.906 169.249 145.925 172.833L145.996 184.909L145.799 185.102C145.277 183.037 145.422 172.805 145.42 170.305Z" fill="#1F242C"/>
            <path id="Vector_7" d="M146.125 197.994C146.194 201.162 146.286 204.33 146.403 207.497C146.29 207.775 146.385 207.672 146.144 207.824C145.743 206.778 145.765 201.893 145.748 200.582C145.791 199.821 145.73 198.572 146.125 197.994Z" fill="#1F242C"/>
            <path id="Vector_8" d="M152.96 167.856C155.612 167.765 161.211 167.729 163.626 167.933C166.914 168.212 166.257 177.359 166.259 179.593L166.257 191.137L166.272 204.248C166.274 206.563 166.306 208.883 166.241 211.194C166.196 212.757 165.558 213.443 163.974 214.016C162.071 214.141 160.069 214.093 158.219 214.179C149.497 214.583 150.612 212.873 150.604 206.111L150.597 196.341L150.595 182.098C150.596 178.488 150.466 174.658 150.802 171.056C150.934 169.639 151.458 168.492 152.96 167.856Z" fill="#1F242C"/>
            <path id="Vector_9" d="M153.239 172.653C156.688 172.576 160.227 172.5 163.667 172.736C163.931 185.754 163.546 198.818 163.697 211.857C160.035 212.028 156.762 212.003 153.104 211.984C152.881 207.923 152.918 173.246 153.239 172.653Z" fill="#545559"/>
            <path id="Vector_10" d="M153.584 169.685C155.301 169.675 162.374 169.427 163.552 169.988C163.775 170.368 163.736 170.363 163.704 170.798L163.304 170.934C161.888 170.941 153.732 171.105 152.968 170.749C152.959 170.274 153.24 170.069 153.584 169.685Z" fill="#F5F4F2"/>
            <path id="Vector_11" d="M156.917 219.319C161.351 219.114 164.698 219.401 164.737 224.091C164.778 228.899 165.016 233.95 164.588 238.744C164.346 241.45 162.268 241.695 159.689 241.764C156.433 241.862 152.391 242.375 152.235 238.452C152.033 233.367 151.889 227.794 152.366 222.707C152.591 220.31 154.427 219.519 156.917 219.319Z" fill="#545559"/>
            <path id="Vector_12" d="M155.718 220.77C159.224 220.625 163.25 219.763 163.213 224.133C163.172 229.157 163.712 234.514 162.854 239.461C162.768 239.959 161.704 240.259 161.239 240.387C159.295 240.454 155.811 240.842 154.347 239.831C153.165 238.113 153.517 225.018 153.842 222.359C154.459 221.475 154.717 221.299 155.718 220.77Z" fill="#FFEA4C"/>
            <path id="Vector_13" d="M145.761 161.271C144.264 158.47 141.379 152.584 140.634 149.558C140.453 148.824 141.494 143.461 141.688 142.378C142.66 136.924 143.682 131.477 144.755 126.037L148.181 107.783C148.817 104.353 149.175 100.471 150.437 97.1754C150.606 96.7347 150.796 96.5278 151.29 96.3388C152.395 95.9158 164.084 95.8554 165.379 96.354C165.837 96.5309 165.976 96.6876 166.125 97.1081C166.897 99.2895 167.126 101.788 167.541 104.055L169.969 117.157L174.061 139.169C174.526 141.674 175.667 147.115 175.821 149.488C175.914 150.932 171.668 158.303 171.359 160.306C170.985 162.731 172.04 164.701 171.823 167.299L171.54 167.155C171.558 166.204 171.311 161.586 170.606 161.088C170.18 161.564 170.196 162.159 170.124 162.78C170.061 162.392 169.99 162.076 169.902 161.692C169.242 161.926 168.07 162.331 167.35 162.375C161.499 162.731 155.11 162.673 149.244 162.452C148.467 162.423 147.379 162.09 146.679 161.864C146.365 161.827 146.057 161.499 145.761 161.271Z" fill="#1F242C"/>
            <path id="Vector_14" d="M151.68 108.529C153.633 108.611 163.729 108.34 164.627 108.801C167.236 120.372 169.115 132.168 171.462 143.787C171.704 144.982 172.366 148.227 172.13 149.282C171.516 152.023 169.046 156.372 168.111 158.999L148.267 159.002C146.996 156.162 145.224 152.504 144.274 149.629C143.849 148.343 144.866 143.731 145.166 142.138L147.088 131.987L149.804 117.695C150.193 115.672 150.711 112.397 151.229 110.508C151.261 109.792 151.475 109.222 151.68 108.529Z" fill="#545559"/>
            <path id="Vector_15" d="M151.569 115.072C153.2 115.382 162.355 115.224 164.503 115.212C167.266 125.51 168.377 136.779 170.948 147.166C171.205 148.203 171.333 149.554 171.08 150.588C169.798 151.661 156.619 150.905 153.999 151.127C152.009 151.294 146.644 151.367 145.088 150.33C145.128 147.837 146.021 144.253 146.518 141.666L149.367 126.777C149.835 124.42 150.282 122.059 150.708 119.695C150.931 118.409 151.204 116.209 151.569 115.072Z" fill="#1F242C"/>
            <path id="Vector_16" d="M151.68 108.529C153.633 108.611 163.729 108.34 164.627 108.801L163.859 108.962C163.221 109.882 164.393 113.847 164.503 115.212C162.355 115.224 153.2 115.382 151.569 115.072L151.6 115.006C151.129 114.061 151.707 111.336 151.229 110.508C151.261 109.792 151.475 109.222 151.68 108.529Z" fill="#3D4045"/>
            <path id="Vector_17" d="M149.721 245.661C153.207 246.053 155.796 246.269 159.375 246.207C161.888 246.164 164.4 245.873 166.819 245.809C166.821 246.308 166.853 247.083 166.817 247.558C166.771 249.309 167.764 251.978 168.12 253.803L168.518 253.776C168.803 254.895 169.095 256.011 169.398 257.126C169.545 257.419 169.545 257.542 169.783 257.718C165.79 259.701 150.424 259.159 146.048 257.331L146.436 257.238C146.632 255.944 147.345 254.258 147.822 252.982L148.283 253.486C148.457 251.85 149.414 249.296 149.699 247.029C149.659 246.549 149.698 246.141 149.721 245.661Z" fill="#D2D1D1"/>
            <path id="Vector_18" d="M149.721 245.661C153.207 246.053 155.796 246.269 159.375 246.207C161.888 246.164 164.4 245.873 166.819 245.809C166.821 246.308 166.853 247.083 166.817 247.558C166.685 247.183 166.709 247.193 166.428 246.895C159.873 247.656 156.254 247.502 149.699 247.029C149.659 246.549 149.698 246.141 149.721 245.661Z" fill="#646467"/>
            <path id="Vector_19" d="M147.822 252.982L148.283 253.486C148.238 254.676 147.9 256.404 146.976 257.303C146.568 257.361 146.744 257.398 146.436 257.238C146.632 255.944 147.345 254.258 147.822 252.982Z" fill="#BCBABA"/>
            <path id="Vector_20" d="M168.12 253.803L168.518 253.776C168.803 254.895 169.095 256.011 169.398 257.126L169.233 257.295L169 257.205C168.6 256.194 168.358 254.876 168.12 253.803Z" fill="#969696"/>
            <path id="Vector_21" d="M170.492 189.548C171.008 188.963 171 188.873 171.017 188.13L171.22 187.962C171.49 188.143 171.393 188.089 171.653 188.228L171.821 188.315C171.984 195.686 171.677 203.857 171.437 211.25C171.337 214.519 171.173 217.789 170.944 221.055C170.866 222.351 170.796 224.762 170.593 225.973L170.479 227.182C170.369 230.553 169.776 234.009 169.482 237.376C169.019 242.696 167.165 248.48 168.518 253.776L168.12 253.803C167.764 251.978 166.771 249.309 166.817 247.558C166.853 247.083 166.821 246.308 166.819 245.809C168.064 238.997 168.285 232.954 169.132 226.307C169.27 224.933 169.372 223.555 169.441 222.174C169.439 221.013 169.513 219.611 169.644 218.447C170.23 213.17 169.807 207.569 170.317 202.34L170.349 200.188C170.211 199.049 170.362 190.556 170.492 189.548Z" fill="url(#paint3_linear_4_2)"/>
            <path id="Vector_22" d="M169.441 222.174C169.878 222.993 169.817 226.006 169.3 226.751L169.132 226.307C169.27 224.933 169.372 223.555 169.441 222.174Z" fill="#1F242C"/>
            <path id="Vector_23" d="M170.349 200.188C170.863 201.547 170.626 204.116 170.511 205.582C170.373 204.381 170.42 203.411 170.317 202.34L170.349 200.188Z" fill="#1F242C"/>
            <path id="Vector_24" d="M170.479 227.182C170.014 226.538 170.051 225.627 170.317 224.918C170.621 225.321 170.546 225.442 170.593 225.973L170.479 227.182Z" fill="#1F242C"/>
            <path id="Vector_25" d="M145.748 200.582C145.765 201.893 145.743 206.778 146.144 207.824C146.385 207.672 146.29 207.775 146.403 207.497C146.569 208.44 146.523 209.41 146.521 210.37C146.593 215.818 147.059 221.802 147.481 227.247C147.897 232.622 148.46 238.678 149.358 243.992C149.595 244.56 149.632 245.063 149.721 245.661C149.698 246.141 149.659 246.549 149.699 247.029C149.414 249.296 148.457 251.85 148.283 253.486L147.822 252.982C148.428 250.954 148.427 247.249 148.265 245.13C148.553 244.555 147.434 236.129 147.278 234.784C146.27 226.122 146.001 217.456 145.387 208.773C145.217 206.375 145.612 203.854 145.232 201.465C145.405 200.763 145.21 201.031 145.748 200.582Z" fill="#646467"/>
            <path id="Vector_26" d="M149.358 243.992C149.231 244.059 149.322 244.025 149.06 244C148.359 240.876 148.006 237.269 147.661 234.078C146.985 227.688 146.517 221.281 146.257 214.867C146.226 214.066 146.028 210.834 146.252 210.185L146.521 210.37C146.593 215.818 147.059 221.802 147.481 227.247C147.897 232.622 148.46 238.678 149.358 243.992Z" fill="#1F242C"/>
            <path id="Vector_27" d="M145.04 170.286L145.42 170.305C145.422 172.805 145.277 183.037 145.799 185.102L145.996 184.909C146.334 186.337 146.319 196.477 146.125 197.994C145.73 198.572 145.791 199.821 145.748 200.582C145.21 201.031 145.405 200.763 145.232 201.465L145.138 201.382C145.102 200.618 145.093 200.469 144.832 199.744C144.624 198.91 144.638 195.375 144.647 194.387C144.675 191.609 144.572 188.641 144.686 185.874C145.322 184.536 144.982 172.767 145.04 170.286Z" fill="#545559"/>
            <path id="Vector_28" d="M144.832 199.744C145.093 200.469 145.102 200.618 145.138 201.382L145.232 201.465C145.612 203.854 145.217 206.375 145.387 208.773C146.001 217.456 146.27 226.122 147.278 234.784C147.434 236.129 148.553 244.555 148.265 245.13C145.925 231.71 144.939 213.523 144.832 199.744Z" fill="#1F242C"/>
            <path id="Vector_29" d="M145.761 161.271C146.057 161.499 146.365 161.827 146.679 161.864L146.38 162.446L146.059 162.585C145.227 164.967 145.379 167.806 145.42 170.305L145.04 170.286C144.982 172.767 145.322 184.536 144.686 185.874L144.582 174.774C144.547 171.26 144.113 164.929 145.333 161.797L145.761 161.271Z" fill="#1F242C"/>
            <path id="Vector_30" d="M145.761 161.271C146.057 161.499 146.365 161.827 146.679 161.864L146.38 162.446L146.059 162.585C145.227 164.967 145.379 167.806 145.42 170.305L145.04 170.286C144.993 167.566 144.973 164.885 145.477 162.197C145.5 162.072 145.393 161.908 145.333 161.797L145.761 161.271Z" fill="#646467"/>
            <path id="Vector_31" d="M153.611 53.8083L162.729 53.8177C163.76 64.694 164.573 76.2578 165.855 87.0215C164.707 86.9764 163.483 86.9717 162.326 86.9494L150.185 86.9561C150.433 85.1362 150.653 83.3135 150.805 81.4855C151.575 72.2676 152.897 63.0236 153.611 53.8083Z" fill="#E73235"/>
            <path id="Vector_32" d="M227.29 182.16C230.682 182.508 234.856 183.235 238.283 183.754L256.36 186.473C260.615 187.045 264.861 187.673 269.098 188.352C270.78 188.647 272.464 188.929 274.152 189.199C274.159 196.702 274.466 204.108 274.543 211.605L274.546 212.557C274.598 215.684 274.669 218.811 274.757 221.938C271.387 222.901 264.112 224.775 261.073 225.896C259.745 226.279 258.369 226.661 257.054 227.062C255.636 227.475 254.222 227.899 252.812 228.332L240.875 231.837C237.894 232.555 234.779 233.559 231.825 234.404C226.14 236.031 220.469 237.756 214.77 239.343C213.043 239.948 210.129 240.701 208.304 241.222C208.268 239.332 208.259 237.441 208.276 235.549C208.421 234.743 208.212 233.366 208.564 232.979C210.261 232.442 212.403 231.541 214.085 230.882C218.156 229.257 222.547 228.07 226.609 226.427C227.11 226.224 227.138 225.875 227.259 225.459C227.536 224.161 227.45 221.242 227.435 219.804L227.331 211.017L227.29 182.16Z" fill="#F5F4F2"/>
            <path id="Vector_33" d="M269.098 188.352C270.78 188.647 272.464 188.929 274.152 189.199C274.159 196.702 274.466 204.108 274.543 211.605L274.546 212.557C274.598 215.684 274.669 218.811 274.757 221.938C271.387 222.901 264.112 224.775 261.073 225.896C259.744 226.279 258.369 226.661 257.054 227.062C255.636 227.475 254.222 227.899 252.812 228.332C252.754 224.461 252.698 220.2 252.841 216.352C257.925 214.457 263.996 213.179 268.949 211.106L269.052 211.035C269.234 210.432 269.158 205.698 269.158 204.812L269.098 188.352Z" fill="#F5F4F2"/>
            <path id="Vector_34" d="M274.543 211.605L274.546 212.557C273.597 212.722 270.414 213.854 269.375 214.187C263.704 216.005 258.308 218.249 252.196 218.642C255.044 217.221 271.679 211.7 274.543 211.605Z" fill="#D2D1D1"/>
            <path id="Vector_35" d="M257.054 227.062C256.991 225.077 256.71 221.776 257.24 219.837C257.48 218.954 258.343 219.475 259.192 219.176L259.156 218.595L259.434 218.605C260.848 219.758 260.984 224.179 261.073 225.896C259.744 226.279 258.369 226.661 257.054 227.062Z" fill="url(#paint4_linear_4_2)"/>
            <path id="Vector_36" d="M256.36 186.473C260.615 187.045 264.861 187.673 269.098 188.352L269.158 204.812C269.158 205.698 269.234 210.432 269.052 211.035L268.949 211.106C268.092 209.924 258.476 209.526 256.492 209.463C256.302 206.941 256.386 203.618 256.382 201.049L256.36 186.473Z" fill="#E73235"/>
            <path id="Vector_37" d="M256.492 209.463C258.475 209.526 268.092 209.924 268.949 211.106C263.996 213.179 257.925 214.457 252.841 216.352C252.698 220.2 252.754 224.461 252.811 228.332L240.875 231.837L240.89 213.5C245.534 212.554 251.853 210.74 256.492 209.463Z" fill="#C82526"/>
            <path id="Vector_38" d="M208.564 232.979C210.261 232.442 212.403 231.541 214.085 230.882C214.619 232.733 214.102 238.673 214.77 239.343C213.043 239.948 210.129 240.701 208.304 241.222C208.268 239.332 208.259 237.441 208.276 235.549C208.421 234.743 208.212 233.366 208.564 232.979Z" fill="#D2D1D1"/>
            <path id="Vector_39" d="M60.3528 186.398C70.0036 185.168 80.0344 183.505 89.6875 182.098C89.9252 192.218 89.7543 202.759 89.7542 212.914L89.7428 220.923C89.7385 222.353 89.6976 223.822 89.8083 225.246C89.8976 226.396 91.974 226.846 93.0286 227.182C95.5685 228.101 98.1269 228.98 100.703 229.821C101.401 230.158 101.75 230.286 102.498 230.535C102.203 231.827 101.608 238.894 101.344 239.205L85.0479 234.478C82.428 233.716 78.7907 232.558 76.1865 231.963C72.9796 231.205 67.4497 229.369 64.0437 228.36C62.8334 227.948 61.1621 227.508 59.8988 227.136C58.4949 226.759 57.1028 226.348 55.724 225.906C52.2783 224.777 45.1046 222.68 41.7883 221.969C41.9051 219.235 41.9628 216.5 41.9611 213.763C41.9356 212.331 41.925 210.244 42.115 208.865C42.0672 202.546 42.3744 195.571 42.473 189.206L47.0922 188.478C51.4276 187.727 55.9884 187.073 60.3528 186.398Z" fill="#F5F4F2"/>
            <path id="Vector_40" d="M47.0922 188.478C47.1368 193.462 47.1389 198.445 47.0981 203.426C47.0926 205.697 46.9884 208.797 47.1614 211.015C53.0031 213.24 58.8014 214.608 64.0921 216.593C64.0823 220.464 64.1351 224.502 64.0437 228.36C62.8334 227.948 61.1621 227.508 59.8988 227.136C58.4949 226.759 57.1028 226.348 55.724 225.906C52.2783 224.777 45.1046 222.68 41.7883 221.969C41.9051 219.235 41.9628 216.5 41.9611 213.763C41.9356 212.331 41.925 210.244 42.115 208.865C42.0672 202.546 42.3744 195.571 42.473 189.206L47.0922 188.478Z" fill="#F5F4F2"/>
            <path id="Vector_41" d="M41.9611 213.763L42.2546 212.824C46.9221 213.969 52.4082 216.208 57.2269 217.551L56.9664 219.416C56.2083 221.937 56.2091 224.137 55.724 225.906C52.2783 224.777 45.1046 222.68 41.7883 221.969C41.9051 219.235 41.9628 216.5 41.9611 213.763Z" fill="#F5F4F2"/>
            <path id="Vector_42" d="M41.9611 213.763C41.9357 212.331 41.925 210.244 42.115 208.865C42.1794 209.792 42.2032 210.506 42.1962 211.435C44.2595 211.967 62.8243 217.833 63.3229 218.361C61.8597 218.461 59.5558 217.851 58.0837 217.501C57.9347 218.041 57.752 218.482 57.8394 219.027C58.2665 219.312 58.2791 219.224 58.903 219.276L56.9664 219.416L57.2269 217.551C52.4082 216.208 46.9221 213.969 42.2546 212.824L41.9611 213.763Z" fill="#D2D1D1"/>
            <path id="Vector_43" d="M56.9664 219.416L58.903 219.276C59.1555 219.501 59.55 219.825 59.5678 220.133C59.6761 222.007 59.8964 224.764 59.9089 226.566C59.9085 226.756 59.9052 226.946 59.8989 227.136C58.495 226.759 57.1028 226.348 55.724 225.906C56.2091 224.137 56.2083 221.937 56.9664 219.416Z" fill="#BCBABA"/>
            <path id="Vector_44" d="M47.0922 188.478C51.4277 187.727 55.9884 187.073 60.3529 186.398L60.3173 209.525C57.3661 209.788 49.515 209.995 47.1614 211.015C46.9884 208.797 47.0926 205.697 47.0982 203.426C47.1389 198.445 47.1369 193.462 47.0922 188.478Z" fill="#E73235"/>
            <path id="Vector_45" d="M60.3173 209.525C65.4711 210.865 71.0117 212.395 76.185 213.559L76.1865 231.963C72.9796 231.205 67.4498 229.369 64.0438 228.36C64.1351 224.502 64.0823 220.464 64.0921 216.593C58.8014 214.608 53.0031 213.24 47.1614 211.015C49.515 209.995 57.3661 209.788 60.3173 209.525Z" fill="#C82526"/>
            <path id="Vector_46" d="M107.115 178.784C114.608 177.88 119.325 177.687 126.945 178.153C129.067 178.339 131.232 178.506 133.29 179.013C133.261 186.991 133.093 195.714 133.316 203.644C133.322 204.207 133.349 204.861 133.295 205.411C133.307 208.693 133.268 212.087 133.346 215.358C124.908 212.97 115.361 213.271 106.914 215.473C106.92 213.992 106.801 206.633 107.018 205.554L107.54 205.217L107.107 205.136C106.709 204.556 106.643 200.563 107.017 199.968C107.181 192.937 107.002 185.833 107.115 178.784Z" fill="#F5F4F2"/>
            <path id="Vector_47" d="M107.54 205.217C108.298 205.215 111.372 204.281 112.399 204.086C117.317 203.157 122.102 203.084 127.009 203.962C129.614 204.348 131.17 205.009 133.295 205.411C133.307 208.693 133.268 212.087 133.347 215.358C124.908 212.97 115.361 213.271 106.914 215.473C106.92 213.992 106.801 206.634 107.018 205.554L107.54 205.217Z" fill="#FFF082"/>
            <path id="Vector_48" d="M127.009 203.962C129.614 204.348 131.17 205.009 133.295 205.411C133.307 208.693 133.268 212.087 133.347 215.358C124.908 212.97 115.361 213.271 106.914 215.473C106.92 213.992 106.801 206.633 107.018 205.554C107.272 206.958 107.151 212.544 107.144 214.115C108.118 213.55 109.353 213.374 110.489 213.13C115.906 211.961 121.028 211.52 126.572 212.239C126.779 209.482 126.925 206.722 127.009 203.962Z" fill="#D5CB7C"/>
            <path id="Vector_49" d="M126.945 178.154C129.067 178.339 131.232 178.506 133.29 179.014C133.261 186.991 133.093 195.714 133.316 203.644C131.156 202.735 129.036 202.404 126.71 201.986C128.286 198.731 127.456 182.39 126.945 178.154Z" fill="#D2D1D1"/>
            <path id="Vector_50" d="M107.54 205.217L107.107 205.136C106.709 204.556 106.643 200.563 107.017 199.968C107.014 200.866 106.876 203.043 107.115 203.762C107.456 203.755 107.153 203.8 107.406 203.66C111.232 201.552 119.384 201.323 123.429 201.608C124.53 201.68 125.626 201.806 126.71 201.986C129.036 202.404 131.156 202.735 133.316 203.644C133.322 204.207 133.349 204.861 133.295 205.411C131.17 205.009 129.614 204.348 127.009 203.962C122.102 203.084 117.317 203.157 112.399 204.086C111.372 204.281 108.298 205.215 107.54 205.217Z" fill="#545559"/>
            <path id="Vector_51" d="M183.558 178.945C189.367 177.813 197.757 177.728 203.789 178.137C205.55 178.267 208.002 178.481 209.76 178.781L209.965 203.755C209.976 204.311 210.017 205.03 209.974 205.572C208.834 205.405 205.587 204.435 204.145 204.127C199.768 203.189 196.925 203.374 192.538 203.482C190.714 202.646 185.683 204.596 183.644 204.758C183.361 204.378 183.463 203.945 183.484 203.464C183.705 195.494 183.551 186.957 183.558 178.945Z" fill="#F5F4F2"/>
            <path id="Vector_52" d="M203.789 178.137C205.55 178.267 208.002 178.481 209.76 178.781L209.965 203.755C209.515 203.644 208.705 203.275 208.039 203.107C206.4 202.691 204.785 202.356 203.144 201.97C203.438 201.942 203.268 201.978 203.629 201.806C204.05 199.367 204.07 196.716 204.128 194.235C204.266 188.867 204.152 183.497 203.789 178.137Z" fill="#D2D1D1"/>
            <path id="Vector_53" d="M183.484 203.464C188.744 201.169 197.418 201.344 203.144 201.97C204.785 202.356 206.4 202.691 208.039 203.107C208.705 203.275 209.515 203.644 209.965 203.755C209.976 204.311 210.017 205.03 209.974 205.572C208.834 205.405 205.587 204.435 204.145 204.127C199.768 203.189 196.925 203.374 192.538 203.482C190.714 202.646 185.683 204.596 183.644 204.758C183.361 204.378 183.463 203.945 183.484 203.464Z" fill="#545559"/>
            <path id="Vector_54" d="M91.8162 181.643C95.6156 181.158 99.4023 180.599 103.174 179.965L103.16 191.571C103.157 193.036 103.227 196.626 103.012 197.978C103.049 200.204 103.119 204.216 102.958 206.404C103.069 210.937 102.922 215.489 102.951 220.022C102.962 221.766 102.72 223.624 104.345 224.864C106.248 226.317 107.594 226.533 108.891 228.579L108.711 231.264C108.83 234.558 108.685 237.997 108.56 241.292L101.344 239.205C101.608 238.894 102.203 231.827 102.498 230.535C101.75 230.286 101.401 230.158 100.703 229.821C98.127 228.98 95.5685 228.101 93.0286 227.182L93.1721 226.853C92.426 226.491 92.608 226.777 92.1299 226.201C92.592 225.809 92.4905 226.037 92.6079 225.562C91.9908 225.364 91.68 225.375 91.341 224.993L91.7667 224.844C91.9327 221.265 91.5639 217.474 91.8244 213.91C91.667 210.861 91.7939 206.866 91.7956 203.742L91.8088 184.509L91.8162 181.643Z" fill="#F5F4F2"/>
            <path id="Vector_55" d="M102.802 211.395C102.819 209.77 102.793 208.011 102.958 206.404C103.069 210.937 102.922 215.489 102.951 220.022C102.962 221.766 102.72 223.624 104.345 224.864C106.248 226.317 107.594 226.533 108.891 228.579L108.711 231.264C108.83 234.558 108.685 237.997 108.56 241.292L101.344 239.205C101.608 238.894 102.203 231.827 102.498 230.535C101.75 230.286 101.401 230.158 100.703 229.821C98.127 228.98 95.5685 228.101 93.0286 227.182L93.1721 226.853C92.426 226.491 92.608 226.777 92.1299 226.201C92.592 225.809 92.4905 226.037 92.6079 225.562C91.9908 225.364 91.68 225.375 91.341 224.993L91.7667 224.844C91.9327 221.265 91.5639 217.474 91.8244 213.91L92.0086 214.046C92.1011 214.847 92.0536 216.266 92.0492 217.127C93.0277 217.147 94.1088 217.216 95.06 217.071C95.1835 216.678 94.6655 213.771 94.5924 212.976L94.9517 212.678C95.6316 211.341 98.9291 211.353 100.449 211.232C101.388 211.205 101.883 211.279 102.802 211.395Z" fill="#D2D1D1"/>
            <path id="Vector_56" d="M100.449 211.232C100.562 212.848 101.059 215.758 99.7344 216.95C99.2119 217.894 99.2562 219.196 99.256 220.246C99.2372 221.358 99.0843 222.002 98.0845 222.7C97.301 222.792 96.5284 222.279 96.4451 221.637C96.1686 219.506 96.2149 217.499 95.8891 215.337L95.6773 215.248L95.5086 216.1C95.108 215.338 95.0153 213.571 94.9517 212.678C95.6316 211.341 98.9291 211.353 100.449 211.232Z" fill="#969696"/>
            <path id="Vector_57" d="M91.7667 224.844L92.0868 224.99C94.9247 226.26 106.027 229.13 108.109 231.495C108.246 232.085 108.264 232.312 108.3 232.918C106.264 232.317 104.504 231.323 102.498 230.535C101.75 230.286 101.401 230.158 100.703 229.821C98.127 228.98 95.5685 228.101 93.0286 227.182L93.1721 226.853C92.426 226.491 92.608 226.777 92.1299 226.201C92.592 225.809 92.4905 226.037 92.6079 225.562C91.9908 225.364 91.68 225.375 91.341 224.993L91.7667 224.844Z" fill="url(#paint5_linear_4_2)"/>
            <path id="Vector_58" d="M93.1721 226.853C94.0881 227.077 100.241 229.238 100.703 229.821C98.127 228.98 95.5685 228.101 93.0286 227.182L93.1721 226.853Z" fill="#3D4045"/>
            <path id="Vector_59" d="M99.7344 216.95C100.773 216.97 100.791 216.829 101.572 217.224C102.225 218.128 102.316 219.725 101.241 220.323C100.579 220.312 99.917 220.287 99.256 220.246C99.2562 219.196 99.2119 217.894 99.7344 216.95Z" fill="#F5F4F2"/>
            <path id="Vector_60" d="M91.8162 181.643C95.6156 181.158 99.4023 180.599 103.174 179.965L103.16 191.571C103.157 193.036 103.227 196.626 103.012 197.978C102.838 196.772 102.92 193.964 102.931 192.667L103.012 183.156C100.382 183.387 93.6235 184.56 91.8088 184.509L91.8162 181.643Z" fill="#D2D1D1"/>
            <path id="Vector_61" d="M213.541 179.815C217.205 180.285 221.699 181.145 225.392 181.764C225.469 185.604 225.495 189.904 225.388 193.73L225.448 213.445L225.457 215.075C225.967 218.18 224.867 223.776 226.488 226.204C226.732 225.991 227.045 225.621 227.259 225.459C227.138 225.875 227.11 226.224 226.609 226.427C222.547 228.07 218.156 229.257 214.085 230.882C212.403 231.541 210.261 232.442 208.564 232.979C208.212 233.366 208.421 234.743 208.276 235.549C208.034 234.136 208.088 229.868 208.065 228.252C209.591 226.325 213.476 225.195 213.588 223.026C213.975 215.492 213.515 207.867 213.662 200.315C213.458 198.617 213.527 194.951 213.519 193.103C213.487 188.673 213.495 184.244 213.541 179.815Z" fill="url(#paint6_linear_4_2)"/>
            <path id="Vector_62" d="M216.509 211.487C218.236 211.502 220.223 211.466 221.875 211.923C221.896 213.53 222.084 215.08 221.029 216.472C220.748 217.931 221.235 223.393 218.768 222.67C217.492 221.426 217.828 218.893 217.618 217.283C217.555 216.804 217.226 216.772 216.671 216.47C216.139 215.489 216.446 212.69 216.509 211.487Z" fill="#969696"/>
            <path id="Vector_63" d="M213.541 179.815C217.205 180.285 221.699 181.145 225.392 181.764C225.468 185.604 225.495 189.904 225.388 193.73C225.18 190.734 225.279 187.614 225.18 184.603C221.293 184.264 217.443 183.649 213.668 182.766C213.567 187.918 213.794 193.068 213.755 198.22C213.75 198.916 213.763 199.622 213.662 200.315C213.458 198.617 213.527 194.951 213.519 193.103C213.487 188.673 213.495 184.244 213.541 179.815Z" fill="#D2D1D1"/>
            <path id="Vector_64" d="M225.457 215.075C225.967 218.18 224.867 223.776 226.488 226.204C226.732 225.991 227.045 225.621 227.258 225.459C227.138 225.875 227.11 226.224 226.609 226.427C222.547 228.07 218.156 229.257 214.085 230.882C212.403 231.541 210.261 232.442 208.564 232.979C208.609 232.63 208.62 232.196 208.741 231.865C209.381 230.111 223.213 225.832 225.316 224.949L225.502 224.869C225.457 222.431 225.428 219.994 225.415 217.556C225.401 216.731 225.435 215.902 225.457 215.075Z" fill="url(#paint7_linear_4_2)"/>
            <path id="Vector_65" d="M221.875 211.923C222.819 212.375 224.464 213.202 225.448 213.445L225.457 215.075C225.435 215.902 225.402 216.731 225.415 217.556C223.835 217.425 222.501 216.955 221.029 216.472C222.084 215.08 221.896 213.53 221.875 211.923Z" fill="#D2D1D1"/>
            <path id="Vector_66" d="M148.29 38.9327C150.286 30.6179 152.534 22.3514 155.032 14.1424C155.463 12.7025 156.466 8.27883 158.089 7.61639C160.089 6.80078 161.146 10.3173 161.516 11.5436C164.251 20.617 166.73 29.7487 168.95 38.9305L163.451 38.9056C158.398 38.8889 153.344 38.8979 148.29 38.9327Z" fill="#F5F4F2"/>
            <path id="Vector_67" d="M161.516 11.5436C164.251 20.617 166.73 29.7487 168.95 38.9305L163.451 38.9056C163.583 34.4137 160.204 15.3032 161.276 12.6137C161.382 12.3495 161.449 12.1485 161.483 11.8658L161.516 11.5436Z" fill="#D2D1D1"/>
            <path id="Vector_68" d="M282.492 190.12C284.549 190.079 286.609 190.076 288.667 190.108C288.662 197.549 288.937 204.696 289.117 212.121C289.179 214.69 289.536 218.903 289.371 221.321C289.441 221.83 289.488 221.645 289.272 222.086C288.451 222.295 279.373 222.207 277.901 222.205C277.903 216.783 277.687 211.558 277.568 206.152C277.451 200.777 277.442 195.491 277.192 190.1L282.492 190.12Z" fill="#F5F4F2"/>
            <path id="Vector_69" d="M282.492 190.12C284.549 190.079 286.609 190.076 288.667 190.108C288.662 197.549 288.937 204.696 289.117 212.121C289.179 214.69 289.536 218.903 289.371 221.321C289.302 220.977 289.266 220.421 289.106 220.123C288.669 219.316 279.792 220.113 278.363 219.619C279.421 219.191 285.097 219.229 286.527 219.212C286.483 213.045 286.334 206.879 286.081 200.717C285.965 197.498 285.692 193.444 285.772 190.279C284.678 190.239 283.584 190.187 282.492 190.12Z" fill="url(#paint8_linear_4_2)"/>
            <path id="Vector_70" d="M28.541 190.184C30.4948 189.931 37.3557 190.089 39.7244 190.108C39.4427 197.619 39.2387 205.133 39.113 212.649C39.0471 215.143 39.1418 220.043 38.9323 222.189L27.4108 222.191C27.5107 221.365 27.5932 220.538 27.6583 219.71L27.7452 219.296C27.9037 217.207 27.7992 214.401 27.8866 212.192C28.189 204.858 28.407 197.521 28.541 190.184Z" fill="#F5F4F2"/>
            <path id="Vector_71" d="M28.541 190.184C30.4948 189.931 37.3557 190.089 39.7244 190.108C39.4427 197.619 39.2387 205.133 39.113 212.649C39.0471 215.143 39.1418 220.043 38.9323 222.189C38.7347 221.285 38.8845 220.654 38.5981 219.688C38.0909 219.416 37.0954 219.393 36.4092 219.291C36.86 210.15 36.8824 199.493 36.9629 190.274C34.2937 190.249 31.1657 190.316 28.541 190.184Z" fill="#D2D1D1"/>
            <path id="Vector_72" d="M27.6583 219.71L27.7452 219.296C28.9956 219.612 34.579 219.219 36.4092 219.291C37.0954 219.393 38.0909 219.416 38.5981 219.688C38.8845 220.654 38.7347 221.285 38.9323 222.189L27.4108 222.191C27.5107 221.365 27.5932 220.538 27.6583 219.71Z" fill="#F5F4F2"/>
            <path id="Vector_73" d="M27.6583 219.71L27.7452 219.296C28.9956 219.612 34.579 219.219 36.4092 219.291C37.0954 219.393 38.0909 219.416 38.5981 219.688C36.0419 219.861 30.3271 219.789 27.6583 219.71Z" fill="#BCBABA"/>
            <path id="Vector_74" d="M192.538 203.482C196.925 203.374 199.768 203.189 204.145 204.127C205.587 204.435 208.834 205.405 209.974 205.572C210.058 208.856 210.114 212.142 210.142 215.427C202.003 213.23 191.589 213.047 183.396 215.32C183.478 211.962 183.51 208.604 183.491 205.246C186.941 204.268 189.029 203.885 192.538 203.482Z" fill="url(#paint9_linear_4_2)"/>
            <path id="Vector_75" d="M29.0674 171.491C29.0938 170.856 29.0337 170.325 29.4117 169.796C30.3809 169.46 38.9625 169.626 40.457 169.706C40.4155 175.673 40.213 182.259 40.0441 188.279C37.7816 188.292 30.4643 188.456 28.5565 188.218C28.5304 184.586 28.8987 180.889 28.8998 177.249C28.9003 175.336 28.948 173.401 29.0674 171.491Z" fill="#F5F4F2"/>
            <path id="Vector_76" d="M29.0674 171.491C29.0939 170.856 29.0338 170.325 29.4117 169.796C30.3809 169.46 38.9625 169.626 40.457 169.706C40.4155 175.673 40.213 182.259 40.0441 188.279C37.7817 188.292 30.4643 188.456 28.5565 188.218C30.5199 188.021 34.7692 188.11 36.9218 188.108C36.9138 182.698 37.2329 177.174 37.131 171.793C33.9473 171.457 32.082 171.588 29.0674 171.491Z" fill="#D2D1D1"/>
            <path id="Vector_77" d="M276.846 169.665C280.547 169.611 284.25 169.603 287.953 169.642C288.52 175.727 288.174 182.136 288.598 188.295C286.799 188.295 278.623 188.413 277.17 188.182C277.157 182.711 276.999 177.341 276.898 171.875C276.828 171.034 276.816 170.507 276.846 169.665Z" fill="#F5F4F2"/>
            <path id="Vector_78" d="M276.846 169.665C280.547 169.611 284.25 169.603 287.953 169.642C288.52 175.727 288.174 182.136 288.598 188.295C286.799 188.295 278.623 188.413 277.17 188.182C278.897 187.997 283.264 188.092 285.201 188.095C285.19 182.571 284.868 177.187 284.683 171.673C283.556 171.631 277.399 171.429 276.898 171.875C276.828 171.034 276.816 170.507 276.846 169.665Z" fill="#D2D1D1"/>
            <path id="Vector_79" d="M190.046 224.849C193.693 224.608 196.237 224.564 199.897 224.659C201.343 224.715 202.788 224.784 204.232 224.869C203.985 229.852 204.043 234.842 204.402 239.82C202.409 239.561 200.792 239.361 198.773 239.235C195.407 239.237 193.342 239.387 190.037 239.877C190.067 234.614 190.448 230.198 190.046 224.849Z" fill="#646467"/>
            <path id="Vector_80" d="M199.897 224.659C201.343 224.715 202.788 224.784 204.232 224.869C203.985 229.852 204.043 234.842 204.402 239.82C202.409 239.561 200.792 239.361 198.773 239.235C199.579 235.028 199.087 229.385 199.897 224.659Z" fill="#545559"/>
            <path id="Vector_81" d="M112.808 224.982C115.956 224.572 119.242 224.603 122.417 224.649C124.036 224.672 125.148 224.715 126.753 224.869C126.773 229.891 126.863 234.914 127.023 239.934C125.142 239.613 123.243 239.379 121.334 239.232C117.651 239.222 116.307 239.299 112.648 239.854C112.704 235.217 113.351 229.493 112.808 224.982Z" fill="#646467"/>
            <path id="Vector_82" d="M122.417 224.649C124.036 224.672 125.148 224.715 126.753 224.869C126.773 229.891 126.863 234.914 127.023 239.934C125.142 239.613 123.243 239.379 121.334 239.232C121.507 234.437 121.727 229.405 122.417 224.649Z" fill="#545559"/>
            <path id="Vector_83" d="M108.234 171.545C110.675 167.088 117.004 167.691 121.714 167.702C123.219 167.707 124.977 167.855 126.439 168.102C130.944 169.29 132.25 171.095 133.161 175.046C122.156 174.165 117.901 174.081 106.963 175.112C107.193 174.157 107.554 172.284 108.234 171.545Z" fill="#545559"/>
            <path id="Vector_84" d="M108.234 171.545C110.675 167.088 117.004 167.691 121.714 167.702C123.219 167.707 124.977 167.855 126.439 168.102C125.938 168.997 125.673 169.488 125.294 170.438C119.584 170.441 113.813 170.192 108.304 171.539C108.281 171.541 108.257 171.542 108.234 171.545Z" fill="#646467"/>
            <path id="Vector_85" d="M192.962 167.724C199.899 167.494 207.723 167.139 209.048 174.943C206.277 174.582 203.181 174.499 200.379 174.389C193.323 174.274 190.508 174.578 183.716 175.062C184.985 170.048 186.852 168.014 192.962 167.724Z" fill="url(#paint10_linear_4_2)"/>
            <path id="Vector_86" d="M194.261 216.541C199.184 216.221 205.568 216.713 210.142 218.444L210.172 222.215C206.701 221.829 203.213 221.594 199.718 221.516C194.408 221.227 188.762 221.781 183.474 222.105L183.5 218.462C186.799 217.016 190.627 216.742 194.261 216.541Z" fill="url(#paint11_linear_4_2)"/>
            <path id="Vector_87" d="M118.154 216.541C122.693 216.27 129.185 216.629 133.325 218.449L133.319 222.215C129.724 221.742 125.918 221.563 122.288 221.514C119.587 221.404 116.881 221.447 114.186 221.645C111.958 221.817 109.081 222.161 106.941 222.127C106.875 220.801 106.906 219.733 106.959 218.403C110.898 217.145 113.98 216.752 118.154 216.541Z" fill="url(#paint12_linear_4_2)"/>
            <path id="Vector_88" d="M112.661 242.008C115.654 241.514 118.277 241.261 121.311 241.473C123.261 241.581 125.202 241.797 127.12 242.125L127.213 249.332C123.916 248.785 121.692 248.474 118.289 248.528C116.181 248.607 114.385 248.883 112.307 249.168C112.558 247.358 112.547 244.02 112.661 242.008Z" fill="#646467"/>
            <path id="Vector_89" d="M121.311 241.473C123.261 241.581 125.202 241.797 127.12 242.125L127.213 249.332C123.916 248.785 121.692 248.474 118.289 248.528C118.701 248.253 120.637 248.361 121.258 248.367C121.396 246.195 121.206 243.758 121.311 241.473Z" fill="#545559"/>
            <path id="Vector_90" d="M194.441 241.515C196.983 241.174 201.836 241.535 204.431 242.044C204.415 244.413 204.448 246.782 204.536 249.149C201.333 248.78 199.411 248.534 196.175 248.556C194.017 248.607 191.879 248.89 189.749 249.173C189.983 247.126 189.994 244.076 190.076 241.948C191.598 241.748 192.895 241.558 194.441 241.515Z" fill="#646467"/>
            <path id="Vector_91" d="M194.441 241.515C196.983 241.174 201.836 241.535 204.431 242.044C204.415 244.413 204.448 246.782 204.536 249.149C201.333 248.78 199.411 248.534 196.175 248.556C196.892 248.376 197.893 248.389 198.661 248.366C198.836 246.477 198.769 243.532 198.795 241.563C197.344 241.558 195.893 241.543 194.441 241.515Z" fill="#545559"/>
            <path id="Vector_92" d="M112.547 259.172C115.574 258.704 118.652 258.543 121.721 258.696C123.168 258.784 125.934 258.979 127.33 259.253C126.776 262.037 126.106 263.341 124.841 265.951L120.094 265.924L114.751 265.934C113.865 263.828 112.823 261.389 112.547 259.172Z" fill="#646467"/>
            <path id="Vector_93" d="M121.721 258.696C123.168 258.784 125.934 258.979 127.33 259.253C126.776 262.037 126.106 263.341 124.841 265.951L120.094 265.925C120.522 265.879 120.801 265.826 121.223 265.744C121.854 264.978 121.523 260.14 121.721 258.696Z" fill="#545559"/>
            <path id="Vector_94" d="M195.24 258.714C197.982 258.424 201.555 258.833 204.318 259.169C204.093 261.438 203.051 263.784 202.163 265.926C200.388 265.928 198.271 265.98 196.523 265.92L192.086 265.938C191.066 263.446 190.387 261.688 189.745 259.131C191.634 258.927 193.33 258.738 195.24 258.714Z" fill="#646467"/>
            <path id="Vector_95" d="M195.24 258.714C197.982 258.424 201.555 258.833 204.318 259.169C204.093 261.438 203.051 263.784 202.163 265.926C200.388 265.928 198.271 265.98 196.523 265.92C197.089 265.803 197.964 265.751 198.563 265.698C198.689 263.407 198.609 261.11 198.738 258.789C197.571 258.796 196.404 258.769 195.24 258.714Z" fill="#545559"/>
            <path id="Vector_96" d="M121.373 250.713C123.329 250.749 125.278 250.939 127.196 251.278C127.316 253.292 127.366 255.308 127.347 257.323C125.364 257.084 123.379 256.863 121.391 256.656C118.747 256.519 115.041 256.918 112.298 257.146L112.286 251.265C115.663 250.7 118.003 250.702 121.373 250.713Z" fill="#646467"/>
            <path id="Vector_97" d="M121.373 250.713C123.329 250.749 125.278 250.939 127.196 251.278C127.316 253.291 127.366 255.308 127.347 257.323C125.364 257.084 123.379 256.863 121.391 256.656C121.348 254.699 121.26 252.664 121.373 250.713Z" fill="#545559"/>
            <path id="Vector_98" d="M198.775 250.708C200.855 250.813 202.64 250.972 204.684 251.386C204.742 253.287 204.82 255.441 204.632 257.326C202.649 257.043 200.803 256.854 198.81 256.658C195.988 256.483 192.51 256.882 189.687 257.221L189.693 251.293C193.375 250.72 195.089 250.703 198.775 250.708Z" fill="#646467"/>
            <path id="Vector_99" d="M198.775 250.708C200.855 250.813 202.64 250.972 204.684 251.386C204.742 253.287 204.82 255.441 204.632 257.326C202.649 257.043 200.803 256.854 198.81 256.658L198.775 250.708Z" fill="#545559"/>
            <path id="Vector_100" d="M31.2967 142.881C33.0891 142.684 35.939 142.797 37.782 142.871C37.8546 146.276 37.8778 149.68 37.8516 153.086L35.2392 153.079L31.0061 153.099C31.0379 151.461 30.8905 143.881 31.2967 142.881Z" fill="#646467"/>
            <path id="Vector_101" d="M31.2967 142.881C33.0892 142.684 35.939 142.797 37.782 142.871C37.8546 146.276 37.8778 149.68 37.8516 153.086L35.2392 153.079C35.3361 149.728 35.1826 146.352 35.1858 142.985C35.3324 143.028 31.6332 142.9 31.2967 142.881Z" fill="#545559"/>
            <path id="Vector_102" d="M279.308 142.89C281.04 142.634 283.695 142.827 285.51 142.925C285.564 146.25 285.683 149.78 285.651 153.084L283.26 153.076L278.926 153.1C278.969 151.557 278.692 143.812 279.308 142.89Z" fill="#646467"/>
            <path id="Vector_103" d="M279.308 142.89C281.04 142.634 283.695 142.827 285.51 142.925C285.564 146.25 285.683 149.78 285.651 153.084L283.26 153.076C283.262 149.914 282.962 146.199 282.877 142.958C281.686 142.961 280.497 142.938 279.308 142.89Z" fill="#545559"/>
            <path id="Vector_104" d="M33.6963 229.249L38.8583 229.28C38.4188 231.357 38.0379 233.246 37.4108 235.287C35.8744 235.49 34.9342 235.48 33.3632 235.482L30.652 235.451L29.2857 229.262L33.6963 229.249Z" fill="#545559"/>
            <path id="Vector_105" d="M29.2857 229.262L33.6963 229.249C33.5752 231.146 33.3612 233.616 33.3632 235.482L30.652 235.451L29.2857 229.262Z" fill="#646467"/>
            <path id="Vector_106" d="M283.569 229.238L287.977 229.247C287.48 231.082 286.844 233.729 286.094 235.444C285.154 235.466 284.051 235.515 283.124 235.484L279.911 235.444C279.287 233.43 278.966 231.32 278.668 229.251L283.569 229.238Z" fill="#646467"/>
            <path id="Vector_107" d="M283.569 229.238L287.977 229.247C287.48 231.082 286.844 233.729 286.094 235.444C285.154 235.466 284.051 235.515 283.124 235.484C283.442 233.317 283.491 231.418 283.569 229.238Z" fill="#545559"/>
            <path id="Vector_108" d="M34.4806 155.708L36.8987 155.707C36.8025 159.135 36.7506 162.564 36.7432 165.994L33.4283 166.025C32.8331 166.017 32.7308 166.089 32.2658 165.848C32.0834 164.176 32.1977 157.617 32.3447 155.856C32.7951 155.61 33.8922 155.702 34.4806 155.708Z" fill="#646467"/>
            <path id="Vector_109" d="M34.4806 155.708L36.8987 155.707C36.8025 159.135 36.7506 162.564 36.7432 165.994L33.4283 166.025L34.213 165.81C34.8497 165.119 34.5161 157.006 34.4806 155.708Z" fill="#545559"/>
            <path id="Vector_110" d="M282.231 155.705L284.579 155.712C284.583 157.012 284.696 165.121 284.471 165.876C283.768 166.099 283.478 166.04 282.709 166.018L280.117 166.017C280.11 164.315 279.898 157.07 280.223 155.897C280.834 155.636 281.535 155.703 282.231 155.705Z" fill="#646467"/>
            <path id="Vector_111" d="M282.231 155.705L284.579 155.712C284.583 157.012 284.696 165.121 284.471 165.876C283.768 166.099 283.478 166.04 282.709 166.018C282.702 162.786 282.821 158.832 282.231 155.705Z" fill="#545559"/>
            <path id="Vector_112" d="M27.4988 223.493L39.3158 223.54C39.2793 224.6 39.1197 225.845 39.0108 226.918C37.8728 227.182 30.0703 227.008 28.3162 227.061C28.0768 225.889 27.7709 224.666 27.4988 223.493Z" fill="#646467"/>
            <path id="Vector_113" d="M277.648 223.516L289.335 223.519C289.043 224.487 288.783 225.732 288.543 226.733L288.464 226.853C287.878 227.066 279.509 227.026 278.132 227.088C277.918 226.03 277.786 224.61 277.648 223.516Z" fill="#646467"/>
            <path id="Vector_114" d="M34.6555 103.43L36.9107 103.461C36.9505 104.907 37.0046 106.27 36.9168 107.718C35.445 107.837 34.5889 107.871 33.1128 107.848C32.5948 107.862 32.5101 107.92 32.0762 107.704C31.3144 106.763 31.6493 104.69 31.7238 103.464L34.6555 103.43Z" fill="#545559"/>
            <path id="Vector_115" d="M34.6555 103.43L36.9106 103.461C36.9505 104.907 37.0046 106.27 36.9168 107.718C35.445 107.837 34.5889 107.871 33.1128 107.848C33.6939 107.792 33.8193 107.807 34.3674 107.61C35.0762 106.746 34.6983 104.539 34.6555 103.43Z" fill="#545559"/>
            <path id="Vector_116" d="M279.762 103.458C281.492 103.414 283.037 103.43 284.76 103.463C284.78 104.925 284.808 106.315 284.728 107.779C282.949 107.85 281.455 107.845 279.686 107.819C279.647 106.365 279.714 104.912 279.762 103.458Z" fill="#545559"/>
        </g>
        <defs>
            <linearGradient id="paint0_linear_4_2" x1="158.654" y1="4.22257" x2="158.654" y2="270.479" gradientUnits="userSpaceOnUse">
                <stop offset="0.326923" stop-color="#2D2921"/>
                <stop offset="1" stop-color="#FFC956"/>
            </linearGradient>
            <linearGradient id="paint1_linear_4_2" x1="190.651" y1="152.753" x2="135.871" y2="146.801" gradientUnits="userSpaceOnUse">
                <stop stop-color="#CECDCC"/>
                <stop offset="1" stop-color="#FEFDFA"/>
            </linearGradient>
            <linearGradient id="paint2_linear_4_2" x1="172.986" y1="205.375" x2="140.49" y2="200.132" gradientUnits="userSpaceOnUse">
                <stop stop-color="#CCCBCB"/>
                <stop offset="1" stop-color="#FFFEFC"/>
            </linearGradient>
            <linearGradient id="paint3_linear_4_2" x1="170.967" y1="220.996" x2="167.502" y2="220.927" gradientUnits="userSpaceOnUse">
                <stop stop-color="#454547"/>
                <stop offset="1" stop-color="#656567"/>
            </linearGradient>
            <linearGradient id="paint4_linear_4_2" x1="259.339" y1="219.409" x2="258.667" y2="226.581" gradientUnits="userSpaceOnUse">
                <stop stop-color="#ADACAB"/>
                <stop offset="1" stop-color="#CFCFCF"/>
            </linearGradient>
            <linearGradient id="paint5_linear_4_2" x1="96.1725" y1="231.339" x2="103.73" y2="225.926" gradientUnits="userSpaceOnUse">
                <stop stop-color="#5B5C5E"/>
                <stop offset="1" stop-color="#8A8988"/>
            </linearGradient>
            <linearGradient id="paint6_linear_4_2" x1="196.737" y1="220.269" x2="229.465" y2="189.804" gradientUnits="userSpaceOnUse">
                <stop stop-color="#CECDCD"/>
                <stop offset="1" stop-color="white"/>
            </linearGradient>
            <linearGradient id="paint7_linear_4_2" x1="220.426" y1="231.293" x2="214.915" y2="225.809" gradientUnits="userSpaceOnUse">
                <stop stop-color="#4B5151"/>
                <stop offset="1" stop-color="#7E797B"/>
            </linearGradient>
            <linearGradient id="paint8_linear_4_2" x1="277.324" y1="205.529" x2="289.08" y2="204.746" gradientUnits="userSpaceOnUse">
                <stop stop-color="#B3AFAF"/>
                <stop offset="1" stop-color="#DCDCDB"/>
            </linearGradient>
            <linearGradient id="paint9_linear_4_2" x1="205.401" y1="218.37" x2="190.075" y2="200.158" gradientUnits="userSpaceOnUse">
                <stop stop-color="#C7C29E"/>
                <stop offset="1" stop-color="#FFEA4C"/>
            </linearGradient>
            <linearGradient id="paint10_linear_4_2" x1="196.646" y1="176.121" x2="195.355" y2="167.369" gradientUnits="userSpaceOnUse">
                <stop stop-color="#3E4047"/>
                <stop offset="1" stop-color="#6F6F70"/>
            </linearGradient>
            <linearGradient id="paint11_linear_4_2" x1="196.724" y1="221.91" x2="196.807" y2="216.745" gradientUnits="userSpaceOnUse">
                <stop stop-color="#A3A1A1"/>
                <stop offset="1" stop-color="#C7C6C6"/>
            </linearGradient>
            <linearGradient id="paint12_linear_4_2" x1="120.092" y1="221.773" x2="120.115" y2="216.78" gradientUnits="userSpaceOnUse">
                <stop stop-color="#A3A1A2"/>
                <stop offset="1" stop-color="#C6C5C5"/>
            </linearGradient>
        </defs>
    </symbol>
</svg>
